# xmcd CD database file
#
# Track frame offsets:
#	182
#	14997
#	29510
#	40847
#	54542
#	65427
#	78805
#	92332
#	106372
#	120697
#	133460
#	147672
#	160832
#	174162
#
# Disc length: 2570 seconds
#
# Revision: 1
# Processed by: cddbd v1.5.2PL0 Copyright (c) Steve Scherf et al.
# Submitted via: CDex 1.85
#
DISCID=c10a080e
DTITLE=AA.VV. - Blues Jazz Soul 1939-40 4o
DYEAR=1995
DGENRE=Jazz
TTITLE0=And the angels sing - Martha Tilton
TTITLE1=You can depend on me - Count Basie
TTITLE2=Over the rainbow - Glenn Miller
TTITLE3=All or nothing at all - Frank Sinatra
TTITLE4=XYZ - Earl Hines
TTITLE5=Why womwn go wrong - Alonzo 'Lonnie' Johnson
TTITLE6=I can't give you anything but love - Una Mae Carlisle
TTITLE7=Frenesi' - Artie Shaw
TTITLE8=Shim-me-sha-wabble - Zutty Singleton
TTITLE9=Gravier street blues - Johnny Dodds
TTITLE10=Midnight special - Huddle Leadbelly
TTITLE11=Beat me daddy eight to the bar - The Andrew Sisters
TTITLE12=Empty room blues - Memphis Slim
TTITLE13=The world is waiting for the sunrise - Jack Teagarden
EXTD=YEAR: 1995
EXTT0=
EXTT1=
EXTT2=
EXTT3=
EXTT4=
EXTT5=
EXTT6=
EXTT7=
EXTT8=
EXTT9=
EXTT10=
EXTT11=
EXTT12=
EXTT13=
PLAYORDER=
